<?xml version="1.0" encoding="utf-8"?>
<!-- Generator: Adobe Illustrator 28.3.0, SVG Export Plug-In . SVG Version: 6.00 Build 0)  -->
<svg version="1.1" id="Layer_2_00000178925101209336151250000009138906919058893215_"
	 xmlns="http://www.w3.org/2000/svg" xmlns:xlink="http://www.w3.org/1999/xlink" x="0px" y="0px" viewBox="0 0 992.2 1072"
	 style="enable-background:new 0 0 992.2 1072;" xml:space="preserve">
<style type="text/css">
	.st0{fill:#000100;}
	.st1{enable-background:new    ;}
</style>
<g id="Layer_1-2">
	<g>
		<g>
			<g>
				<path class="st0" d="M73.3,576.7v355.9H0.2V576.7C0.2,576.7,73.3,576.7,73.3,576.7z"/>
			</g>
			<g>
				<path class="st0" d="M379.4,718.5h-73.7v-38c-2.9-24.7-18.2-38.1-46-40.3c-28.5,2.2-44.1,15.7-46.6,40.3v152.3
					c2.9,24.7,18.4,37.8,46.6,39.4c27.4-1.9,42.8-15,46-39.4v-40.3h73.7v40.3c-8,63-47.9,97.5-119.7,103.5
					c-72.9-5.7-112.5-40.2-118.6-103.5V678.2c5.8-63.9,45.3-99,118.6-105.4c72.6,6.3,112.5,41.5,119.7,105.4V718.5L379.4,718.5z"/>
			</g>
			<g>
				<path class="st0" d="M552.1,572.4c72.6,6.3,112.5,41.3,119.7,104.9V832c-7.6,63.3-47.5,97.8-119.7,103.5
					c-72.2-6-111.8-40.5-118.6-103.5V677.3C439.7,613.7,479.2,578.7,552.1,572.4z M598.7,832.5V679.2c-2.9-24.7-18.4-38.1-46.6-40.3
					c-28.2,2.5-43.5,16-46,40.3v153.3c2.5,24.7,17.9,37.8,46,39.4C580.3,870.3,595.8,857.1,598.7,832.5z"/>
			</g>
			<g>
				<path class="st0" d="M964.3,932.1h-78.5c-28.9-61.1-58-122.3-87.2-183.7v183.7H726V576.7h76.4c29.2,62.6,58.8,125,88.8,187
					V577.1h73.1L964.3,932.1L964.3,932.1z"/>
			</g>
		</g>
		<g class="st1">
			<path class="st0" d="M7.8,999.8h9.8v5.4H2.2v-32.3h5.6V999.8z"/>
		</g>
		<g class="st1">
			<path class="st0" d="M34.5,998.6h-7.6l-1.5,6.6h-5.9l8.7-32.3h5.1l8.7,32.3h-6L34.5,998.6z M28.1,993.2h5.2l-2.6-11.5L28.1,993.2
				z"/>
			<path class="st0" d="M44.6,1005.2v-32.3h8.6c2.9,0,5.1,0.8,6.6,2.2c1.5,1.5,2.3,3.7,2.3,6.6c0,1.6-0.3,3.1-0.9,4.2
				s-1.5,2-2.6,2.6c1.2,0.4,2.2,1.2,2.9,2.5c0.7,1.2,1,2.8,1,4.6c0,3.1-0.7,5.5-2.2,7.1c-1.5,1.6-3.6,2.4-6.4,2.4H44.6z M50.2,986.4
				h2.9c2.2,0,3.3-1.3,3.3-4c0-1.5-0.3-2.5-0.8-3.1c-0.5-0.6-1.3-1-2.5-1h-3V986.4z M50.2,991.2v8.6h3.6c1,0,1.8-0.4,2.3-1.1
				c0.5-0.7,0.8-1.8,0.8-3.1c0-2.9-0.9-4.4-2.7-4.5H50.2z"/>
			<path class="st0" d="M86,992c0,4.3-0.9,7.7-2.6,10.1c-1.8,2.4-4.2,3.6-7.3,3.6c-3.1,0-5.6-1.2-7.3-3.6s-2.7-5.7-2.7-10v-5.5
				c0-4.4,0.9-7.9,2.6-10.4s4.2-3.7,7.4-3.7c3.1,0,5.5,1.2,7.3,3.7c1.8,2.4,2.7,5.9,2.7,10.3V992z M80.4,986.5
				c0-2.9-0.4-5.1-1.1-6.5c-0.7-1.4-1.8-2.1-3.3-2.1c-1.5,0-2.6,0.7-3.3,2.1c-0.7,1.4-1.1,3.4-1.1,6.2v5.7c0,2.8,0.4,4.9,1.1,6.2
				c0.7,1.3,1.8,2,3.4,2c1.5,0,2.5-0.7,3.3-2c0.7-1.3,1.1-3.3,1.1-6.1V986.5z"/>
			<path class="st0" d="M98.5,993.4h-2.8v11.8h-5.6v-32.3H99c2.8,0,5,0.8,6.5,2.5s2.3,4.1,2.3,7.2c0,4.3-1.3,7.3-4,9l4.9,13.2v0.3
				h-6L98.5,993.4z M95.7,988h3.2c1.1,0,2-0.4,2.5-1.3s0.8-2,0.8-3.5c0-3.2-1.1-4.9-3.3-4.9h-3.3V988z"/>
		</g>
		<g class="st1">
			<path class="st0" d="M124.9,998.6h-7.6l-1.5,6.6h-5.9l8.7-32.3h5.1l8.7,32.3h-6L124.9,998.6z M118.5,993.2h5.2l-2.6-11.5
				L118.5,993.2z"/>
		</g>
		<g class="st1">
			<path class="st0" d="M150.7,978.3h-6.9v26.8h-5.6v-26.8h-6.7v-5.4h19.2V978.3z"/>
		</g>
		<g class="st1">
			<path class="st0" d="M172.9,992c0,4.3-0.9,7.7-2.6,10.1c-1.8,2.4-4.2,3.6-7.3,3.6c-3.1,0-5.6-1.2-7.3-3.6s-2.7-5.7-2.7-10v-5.5
				c0-4.4,0.9-7.9,2.6-10.4s4.2-3.7,7.4-3.7c3.1,0,5.5,1.2,7.3,3.7c1.8,2.4,2.7,5.9,2.7,10.3V992z M167.3,986.5
				c0-2.9-0.4-5.1-1.1-6.5c-0.7-1.4-1.8-2.1-3.3-2.1c-1.5,0-2.6,0.7-3.3,2.1c-0.7,1.4-1.1,3.4-1.1,6.2v5.7c0,2.8,0.4,4.9,1.1,6.2
				c0.7,1.3,1.8,2,3.4,2c1.5,0,2.5-0.7,3.3-2c0.7-1.3,1.1-3.3,1.1-6.1V986.5z M164,964.3h6.1l-5.3,6.9h-4.5L164,964.3z"/>
			<path class="st0" d="M185.4,993.4h-2.8v11.8H177v-32.3h8.9c2.8,0,5,0.8,6.5,2.5s2.3,4.1,2.3,7.2c0,4.3-1.3,7.3-4,9l4.9,13.2v0.3
				h-6L185.4,993.4z M182.6,988h3.2c1.1,0,2-0.4,2.5-1.3s0.8-2,0.8-3.5c0-3.2-1.1-4.9-3.3-4.9h-3.3V988z"/>
			<path class="st0" d="M204.4,1005.2h-5.6v-32.3h5.6V1005.2z"/>
			<path class="st0" d="M228.7,992c0,4.3-0.9,7.7-2.6,10.1c-1.8,2.4-4.2,3.6-7.3,3.6c-3.1,0-5.6-1.2-7.3-3.6s-2.7-5.7-2.7-10v-5.5
				c0-4.4,0.9-7.9,2.6-10.4s4.2-3.7,7.4-3.7c3.1,0,5.5,1.2,7.3,3.7c1.8,2.4,2.7,5.9,2.7,10.3V992z M223,986.5c0-2.9-0.4-5.1-1.1-6.5
				c-0.7-1.4-1.8-2.1-3.3-2.1c-1.5,0-2.6,0.7-3.3,2.1c-0.7,1.4-1.1,3.4-1.1,6.2v5.7c0,2.8,0.4,4.9,1.1,6.2c0.7,1.3,1.8,2,3.4,2
				c1.5,0,2.5-0.7,3.3-2c0.7-1.3,1.1-3.3,1.1-6.1V986.5z"/>
			<path class="st0" d="M241.7,1005.2v-32.3h7.3c3.2,0,5.8,1.2,7.7,3.6c1.9,2.4,2.9,5.7,2.9,9.8v5.2c0,4.2-1,7.6-2.9,10
				c-1.9,2.4-4.6,3.6-8,3.6H241.7z M247.3,978.3v21.4h1.7c1.9,0,3.2-0.6,3.9-1.7s1.2-3.1,1.2-5.9v-5.6c0-3-0.4-5.1-1.1-6.3
				c-0.7-1.2-2-1.8-3.7-1.9H247.3z"/>
			<path class="st0" d="M278.1,991.2h-8.7v8.6h10.3v5.4h-15.9v-32.3h15.9v5.4h-10.3v7.6h8.7V991.2z"/>
			<path class="st0" d="M297.5,993.8v11.3h-5.6v-32.3h9.5c2.7,0,4.9,1,6.6,3c1.6,2,2.4,4.6,2.4,7.7c0,3.2-0.8,5.7-2.4,7.5
				s-3.9,2.7-6.7,2.7H297.5z M297.5,988.4h3.9c1.1,0,1.9-0.4,2.5-1.2c0.6-0.8,0.9-2,0.9-3.5c0-1.6-0.3-2.9-0.9-3.8
				c-0.6-1-1.4-1.4-2.4-1.5h-3.9V988.4z"/>
			<path class="st0" d="M328.5,991.2h-8.7v8.6h10.3v5.4h-15.9v-32.3H330v5.4h-10.3v7.6h8.7V991.2z"/>
			<path class="st0" d="M345,996.7c0-1.3-0.3-2.3-0.9-3c-0.6-0.7-1.6-1.4-3.2-2.1c-2.8-1.2-4.8-2.7-6-4.3c-1.2-1.6-1.8-3.6-1.8-5.8
				c0-2.7,0.8-4.9,2.5-6.6s3.8-2.5,6.3-2.5c1.7,0,3.2,0.4,4.6,1.3c1.3,0.8,2.4,2,3.1,3.5c0.7,1.5,1.1,3.3,1.1,5.2h-5.6
				c0-1.5-0.3-2.7-0.8-3.4c-0.6-0.8-1.4-1.2-2.4-1.2c-1,0-1.7,0.3-2.3,1c-0.5,0.7-0.8,1.6-0.8,2.7c0,0.9,0.3,1.7,0.9,2.4
				c0.6,0.7,1.7,1.5,3.2,2.2c2.7,1.1,4.7,2.5,5.9,4.2s1.8,3.8,1.8,6.3c0,2.8-0.8,5-2.3,6.6c-1.5,1.6-3.6,2.4-6.3,2.4
				c-1.8,0-3.4-0.4-4.9-1.3c-1.5-0.9-2.6-2.1-3.5-3.7c-0.8-1.6-1.2-3.5-1.2-5.7h5.6c0,1.9,0.3,3.2,0.9,4.1c0.6,0.8,1.6,1.3,3.1,1.3
				C344,1000.3,345,999.1,345,996.7z"/>
			<path class="st0" d="M373.9,991.6c0,5.3-1.2,9.2-3.7,11.6l3.8,4l-3.5,3.8l-5.1-5.4l-1.5,0.1c-3.1,0-5.6-1.2-7.4-3.7
				s-2.7-5.9-2.7-10.3v-5.1c0-4.4,0.9-7.9,2.6-10.4s4.2-3.7,7.4-3.7c3.1,0,5.5,1.2,7.3,3.6c1.8,2.4,2.7,5.8,2.8,10.1V991.6z
				 M368.3,986.5c0-2.9-0.4-5.1-1.1-6.5c-0.7-1.4-1.8-2.1-3.3-2.1s-2.6,0.7-3.3,2.1s-1.1,3.4-1.1,6.2v5.3c0,3,0.4,5.1,1.1,6.5
				c0.7,1.4,1.8,2.1,3.3,2.1c1.5,0,2.6-0.7,3.3-2.1c0.7-1.4,1.1-3.5,1.1-6.4V986.5z"/>
			<path class="st0" d="M396,972.9v22.3c0,3.4-0.8,5.9-2.4,7.7c-1.6,1.8-3.8,2.7-6.7,2.7c-3,0-5.2-0.9-6.8-2.7
				c-1.6-1.8-2.4-4.4-2.4-7.8v-22.2h5.6v22.2c0,1.8,0.3,3.1,0.8,3.9s1.4,1.2,2.8,1.2s2.2-0.4,2.7-1.2c0.5-0.8,0.8-2,0.8-3.8v-22.3
				H396z"/>
			<path class="st0" d="M406.1,1005.2h-5.6v-32.3h5.6V1005.2z"/>
			<path class="st0" d="M422.5,996.7c0-1.3-0.3-2.3-0.9-3c-0.6-0.7-1.6-1.4-3.2-2.1c-2.8-1.2-4.8-2.7-6-4.3
				c-1.2-1.6-1.8-3.6-1.8-5.8c0-2.7,0.8-4.9,2.5-6.6s3.8-2.5,6.3-2.5c1.7,0,3.2,0.4,4.6,1.3c1.3,0.8,2.4,2,3.1,3.5
				c0.7,1.5,1.1,3.3,1.1,5.2h-5.6c0-1.5-0.3-2.7-0.8-3.4c-0.6-0.8-1.4-1.2-2.4-1.2c-1,0-1.7,0.3-2.3,1c-0.5,0.7-0.8,1.6-0.8,2.7
				c0,0.9,0.3,1.7,0.9,2.4c0.6,0.7,1.7,1.5,3.2,2.2c2.7,1.1,4.7,2.5,5.9,4.2s1.8,3.8,1.8,6.3c0,2.8-0.8,5-2.3,6.6
				c-1.5,1.6-3.6,2.4-6.3,2.4c-1.8,0-3.4-0.4-4.9-1.3c-1.5-0.9-2.6-2.1-3.5-3.7c-0.8-1.6-1.2-3.5-1.2-5.7h5.6c0,1.9,0.3,3.2,0.9,4.1
				c0.6,0.8,1.6,1.3,3.1,1.3C421.5,1000.3,422.5,999.1,422.5,996.7z"/>
			<path class="st0" d="M445.1,998.6h-7.6l-1.5,6.6h-5.9l8.7-32.3h5.1l8.7,32.3h-6L445.1,998.6z M438.7,993.2h5.2l-2.6-11.5
				L438.7,993.2z"/>
			<path class="st0" d="M456.5,1013.3l-2.9-1.8l0.7-1.6c0.8-1.7,1.2-3.5,1.3-5.3v-5h4.7l0,4.5c0,1.6-0.4,3.2-1,4.9
				C458.6,1010.8,457.7,1012.2,456.5,1013.3z"/>
			<path class="st0" d="M473.8,1005.2v-32.3h7.3c3.2,0,5.8,1.2,7.7,3.6c1.9,2.4,2.9,5.7,2.9,9.8v5.2c0,4.2-1,7.6-2.9,10
				c-1.9,2.4-4.6,3.6-8,3.6H473.8z M479.4,978.3v21.4h1.7c1.9,0,3.2-0.6,3.9-1.7s1.2-3.1,1.2-5.9v-5.6c0-3-0.4-5.1-1.1-6.3
				c-0.7-1.2-2-1.8-3.7-1.9H479.4z"/>
			<path class="st0" d="M510.2,991.2h-8.7v8.6h10.3v5.4h-15.9v-32.3h15.9v5.4h-10.3v7.6h8.7V991.2z"/>
			<path class="st0" d="M526.7,996.7c0-1.3-0.3-2.3-0.9-3c-0.6-0.7-1.6-1.4-3.2-2.1c-2.8-1.2-4.8-2.7-6-4.3
				c-1.2-1.6-1.8-3.6-1.8-5.8c0-2.7,0.8-4.9,2.5-6.6s3.8-2.5,6.3-2.5c1.7,0,3.2,0.4,4.6,1.3c1.3,0.8,2.4,2,3.1,3.5
				c0.7,1.5,1.1,3.3,1.1,5.2h-5.6c0-1.5-0.3-2.7-0.8-3.4c-0.6-0.8-1.4-1.2-2.4-1.2c-1,0-1.7,0.3-2.3,1c-0.5,0.7-0.8,1.6-0.8,2.7
				c0,0.9,0.3,1.7,0.9,2.4c0.6,0.7,1.7,1.5,3.2,2.2c2.7,1.1,4.7,2.5,5.9,4.2s1.8,3.8,1.8,6.3c0,2.8-0.8,5-2.3,6.6
				c-1.5,1.6-3.6,2.4-6.3,2.4c-1.8,0-3.4-0.4-4.9-1.3c-1.5-0.9-2.6-2.1-3.5-3.7c-0.8-1.6-1.2-3.5-1.2-5.7h5.6c0,1.9,0.3,3.2,0.9,4.1
				c0.6,0.8,1.6,1.3,3.1,1.3C525.7,1000.3,526.7,999.1,526.7,996.7z"/>
			<path class="st0" d="M550.4,991.2h-8.7v8.6H552v5.4h-15.9v-32.3H552v5.4h-10.3v7.6h8.7V991.2z"/>
			<path class="st0" d="M574.7,1005.2H569l-8.2-21.2v21.2h-5.6v-32.3h5.6l8.2,21.2v-21.2h5.6V1005.2z"/>
		</g>
		<g class="st1">
			<path class="st0" d="M588.2,996.3l4.7-23.4h6.3l-8,32.3h-5.8l-7.9-32.3h6.2L588.2,996.3z"/>
		</g>
		<g class="st1">
			<path class="st0" d="M621,992c0,4.3-0.9,7.7-2.6,10.1c-1.8,2.4-4.2,3.6-7.3,3.6c-3.1,0-5.6-1.2-7.3-3.6s-2.7-5.7-2.7-10v-5.5
				c0-4.4,0.9-7.9,2.7-10.4s4.2-3.7,7.4-3.7c3.1,0,5.5,1.2,7.3,3.7c1.8,2.4,2.7,5.9,2.7,10.3V992z M615.4,986.5
				c0-2.9-0.4-5.1-1.1-6.5c-0.7-1.4-1.8-2.1-3.3-2.1c-1.5,0-2.6,0.7-3.3,2.1s-1.1,3.4-1.1,6.2v5.7c0,2.8,0.4,4.9,1.1,6.2
				c0.7,1.3,1.8,2,3.4,2c1.5,0,2.5-0.7,3.3-2c0.7-1.3,1.1-3.3,1.1-6.1V986.5z"/>
		</g>
		<g class="st1">
			<path class="st0" d="M630.7,999.8h9.8v5.4h-15.4v-32.3h5.6V999.8z"/>
		</g>
		<g class="st1">
			<path class="st0" d="M648.8,996.3l4.7-23.4h6.3l-8,32.3h-5.8l-7.9-32.3h6.2L648.8,996.3z"/>
			<path class="st0" d="M668.2,1005.2h-5.6v-32.3h5.6V1005.2z"/>
			<path class="st0" d="M680.3,972.9l5.2,23.3l5.2-23.3h7.3v32.3h-5.6v-8.7l0.5-13.5l-5.5,22.2h-3.8L678,983l0.5,13.5v8.7h-5.6
				v-32.3H680.3z"/>
			<path class="st0" d="M716.9,991.2h-8.7v8.6h10.3v5.4h-15.9v-32.3h15.9v5.4h-10.3v7.6h8.7V991.2z"/>
		</g>
		<g class="st1">
			<path class="st0" d="M741.1,1005.2h-5.6l-8.2-21.2v21.2h-5.6v-32.3h5.6l8.2,21.2v-21.2h5.6V1005.2z"/>
		</g>
		<g class="st1">
			<path class="st0" d="M763.1,978.3h-6.9v26.8h-5.6v-26.8h-6.7v-5.4h19.2V978.3z"/>
		</g>
		<g class="st1">
			<path class="st0" d="M785.3,992c0,4.3-0.9,7.7-2.6,10.1c-1.8,2.4-4.2,3.6-7.3,3.6c-3.1,0-5.6-1.2-7.3-3.6s-2.7-5.7-2.7-10v-5.5
				c0-4.4,0.9-7.9,2.7-10.4c1.8-2.5,4.2-3.7,7.4-3.7c3.1,0,5.5,1.2,7.3,3.7c1.8,2.4,2.7,5.9,2.7,10.3V992z M779.7,986.5
				c0-2.9-0.4-5.1-1.1-6.5c-0.7-1.4-1.8-2.1-3.3-2.1c-1.5,0-2.6,0.7-3.3,2.1c-0.7,1.4-1.1,3.4-1.1,6.2v5.7c0,2.8,0.4,4.9,1.1,6.2
				c0.7,1.3,1.8,2,3.4,2c1.5,0,2.5-0.7,3.3-2c0.7-1.3,1.1-3.3,1.1-6.1V986.5z"/>
			<path class="st0" d="M812.6,991.2h-8.7v8.6h10.3v5.4h-15.9v-32.3h15.9v5.4h-10.3v7.6h8.7V991.2z"/>
			<path class="st0" d="M832.3,1005.2h-5.6v-32.3h5.6V1005.2z"/>
			<path class="st0" d="M856.4,1005.2h-5.6l-8.2-21.2v21.2H837v-32.3h5.6l8.2,21.2v-21.2h5.6V1005.2z"/>
		</g>
		<g class="st1">
			<path class="st0" d="M880.5,992c0,4.3-0.9,7.7-2.6,10.1c-1.8,2.4-4.2,3.6-7.3,3.6c-3.1,0-5.6-1.2-7.3-3.6s-2.7-5.7-2.7-10v-5.5
				c0-4.4,0.9-7.9,2.7-10.4c1.8-2.5,4.2-3.7,7.4-3.7c3.1,0,5.5,1.2,7.3,3.7c1.8,2.4,2.7,5.9,2.7,10.3V992z M874.8,986.5
				c0-2.9-0.4-5.1-1.1-6.5c-0.7-1.4-1.8-2.1-3.3-2.1c-1.5,0-2.6,0.7-3.3,2.1c-0.7,1.4-1.1,3.4-1.1,6.2v5.7c0,2.8,0.4,4.9,1.1,6.2
				c0.7,1.3,1.8,2,3.4,2c1.5,0,2.5-0.7,3.3-2c0.7-1.3,1.1-3.3,1.1-6.1V986.5z"/>
		</g>
		<g class="st1">
			<path class="st0" d="M893.1,996.3l4.7-23.4h6.3l-8,32.3h-5.8l-7.9-32.3h6.2L893.1,996.3z"/>
		</g>
		<g class="st1">
			<path class="st0" d="M918.5,998.6h-7.6l-1.5,6.6h-5.9l8.7-32.3h5.1l8.7,32.3h-6L918.5,998.6z M912,993.2h5.2l-2.6-11.5L912,993.2
				z"/>
		</g>
		<g class="st1">
			<path class="st0" d="M947,994.4c-0.1,3.7-1,6.5-2.7,8.4c-1.6,1.9-4,2.8-6.9,2.8c-3.1,0-5.5-1.2-7.2-3.6
				c-1.7-2.4-2.5-5.8-2.5-10.3v-5.4c0-4.4,0.9-7.9,2.6-10.3c1.7-2.4,4.1-3.6,7.2-3.6c3,0,5.3,1,6.9,2.9c1.6,2,2.5,4.8,2.7,8.5h-5.6
				c-0.1-2.3-0.4-3.8-0.9-4.7c-0.6-0.9-1.6-1.3-3-1.3c-1.5,0-2.6,0.6-3.2,1.8c-0.6,1.2-1,3.2-1,6v6.1c0,3.2,0.3,5.4,0.9,6.6
				c0.6,1.2,1.7,1.8,3.2,1.8c1.5,0,2.5-0.4,3-1.3c0.6-0.8,0.9-2.3,1-4.5H947z M939.4,1005.1l-0.2,1.3c0.7,0.2,1.3,0.6,1.7,1.3
				c0.4,0.7,0.6,1.5,0.6,2.6c0,1.6-0.5,2.9-1.5,3.9c-1,0.9-2.4,1.4-4.3,1.4l-0.1-3.7c0.9,0,1.4-0.6,1.4-1.8c0-0.6-0.2-1-0.5-1.2
				c-0.3-0.2-0.9-0.4-1.6-0.5l0.5-3.2H939.4z"/>
		</g>
		<g class="st1">
			<path class="st0" d="M963.7,998.6H956l-1.5,6.6h-5.9l8.7-32.3h5.1l8.7,32.3h-6L963.7,998.6z M966.1,964.6c0,1.6-0.4,3-1.1,4.2
				c-0.7,1.1-1.6,1.7-2.7,1.7c-0.4,0-0.8-0.1-1.1-0.2s-0.8-0.4-1.3-0.8c-0.6-0.4-1-0.7-1.2-0.8c-0.2-0.1-0.5-0.1-0.8-0.1
				c-0.3,0-0.6,0.2-0.9,0.5c-0.2,0.4-0.3,0.9-0.3,1.6l-3-0.2c0-1.6,0.4-3,1.1-4.2s1.6-1.7,2.7-1.7c0.3,0,0.6,0,0.8,0.1
				c0.3,0.1,0.7,0.4,1.4,0.8s1.1,0.7,1.4,0.8c0.3,0.1,0.6,0.2,0.8,0.2c0.3,0,0.6-0.2,0.9-0.5c0.2-0.4,0.4-0.9,0.4-1.6L966.1,964.6z
				 M957.2,993.2h5.2l-2.6-11.5L957.2,993.2z"/>
		</g>
		<g class="st1">
			<path class="st0" d="M992.9,992c0,4.3-0.9,7.7-2.6,10.1c-1.8,2.4-4.2,3.6-7.3,3.6c-3.1,0-5.6-1.2-7.3-3.6s-2.7-5.7-2.7-10v-5.5
				c0-4.4,0.9-7.9,2.7-10.4c1.8-2.5,4.2-3.7,7.4-3.7c3.1,0,5.5,1.2,7.3,3.7c1.8,2.4,2.7,5.9,2.7,10.3V992z M987.2,986.5
				c0-2.9-0.4-5.1-1.1-6.5s-1.8-2.1-3.3-2.1c-1.5,0-2.6,0.7-3.3,2.1c-0.7,1.4-1.1,3.4-1.1,6.2v5.7c0,2.8,0.4,4.9,1.1,6.2
				c0.7,1.3,1.8,2,3.4,2c1.5,0,2.5-0.7,3.3-2c0.7-1.3,1.1-3.3,1.1-6.1V986.5z"/>
		</g>
		<g class="st1">
			<path class="st0" d="M16.6,1045.7H7.8v8.6h10.3v5.4H2.2v-32.3h15.9v5.4H7.8v7.6h8.7V1045.7z"/>
			<path class="st0" d="M28.7,1027.4l5.2,23.3l5.2-23.3h7.3v32.3h-5.6v-8.7l0.5-13.5l-5.5,22.2H32l-5.5-22.2l0.5,13.5v8.7h-5.6
				v-32.3H28.7z"/>
			<path class="st0" d="M65.8,1059.7h-5.6v-32.3h5.6V1059.7z"/>
		</g>
		<g class="st1">
			<path class="st0" d="M90,1059.7h-5.6l-8.2-21.2v21.2h-5.6v-32.3h5.6l8.2,21.2v-21.2H90V1059.7z"/>
		</g>
		<g class="st1">
			<path class="st0" d="M111.9,1032.8H105v26.8h-5.6v-26.8h-6.7v-5.4h19.2V1032.8z"/>
			<path class="st0" d="M129.5,1045.7h-8.7v8.6h10.3v5.4h-15.9v-32.3H131v5.4h-10.3v7.6h8.7V1045.7z"/>
			<path class="st0" d="M142.7,1047.9h-2.8v11.8h-5.6v-32.3h8.9c2.8,0,5,0.8,6.5,2.5s2.3,4.1,2.3,7.2c0,4.3-1.3,7.3-4,9l4.9,13.2
				v0.3h-6L142.7,1047.9z M139.9,1042.4h3.2c1.1,0,2-0.4,2.5-1.3s0.8-2,0.8-3.5c0-3.2-1.1-4.9-3.3-4.9h-3.3V1042.4z"/>
		</g>
		<g class="st1">
			<path class="st0" d="M169.1,1053.1h-7.6l-1.5,6.6h-5.9l8.7-32.3h5.1l8.7,32.3h-6L169.1,1053.1z M162.7,1047.6h5.2l-2.6-11.5
				L162.7,1047.6z"/>
		</g>
		<g class="st1">
			<path class="st0" d="M194.9,1032.8H188v26.8h-5.6v-26.8h-6.7v-5.4h19.2V1032.8z"/>
			<path class="st0" d="M204,1059.7h-5.6v-32.3h5.6V1059.7z"/>
			<path class="st0" d="M217.7,1050.8l4.7-23.4h6.3l-8,32.3h-5.8l-7.9-32.3h6.2L217.7,1050.8z"/>
			<path class="st0" d="M237.1,1059.7h-5.6v-32.3h5.6V1059.7z"/>
		</g>
		<g class="st1">
			<path class="st0" d="M241.8,1059.7v-32.3h7.3c3.2,0,5.8,1.2,7.7,3.6c1.9,2.4,2.9,5.7,2.9,9.8v5.2c0,4.2-1,7.6-2.9,10
				c-1.9,2.4-4.6,3.6-8,3.6H241.8z M247.4,1032.8v21.4h1.7c1.9,0,3.2-0.6,3.9-1.7s1.2-3.1,1.2-5.9v-5.6c0-3-0.4-5.1-1.1-6.3
				c-0.7-1.2-2-1.8-3.7-1.9H247.4z"/>
		</g>
		<g class="st1">
			<path class="st0" d="M276.7,1053.1h-7.6l-1.5,6.6h-5.9l8.7-32.3h5.1l8.7,32.3h-6L276.7,1053.1z M270.3,1047.6h5.2l-2.6-11.5
				L270.3,1047.6z"/>
			<path class="st0" d="M286.8,1059.7v-32.3h7.3c3.2,0,5.8,1.2,7.7,3.6c1.9,2.4,2.9,5.7,2.9,9.8v5.2c0,4.2-1,7.6-2.9,10
				c-1.9,2.4-4.6,3.6-8,3.6H286.8z M292.4,1032.8v21.4h1.7c1.9,0,3.2-0.6,3.9-1.7s1.2-3.1,1.2-5.9v-5.6c0-3-0.4-5.1-1.1-6.3
				c-0.7-1.2-2-1.8-3.7-1.9H292.4z"/>
			<path class="st0" d="M323.2,1045.7h-8.7v8.6h10.3v5.4h-15.9v-32.3h15.9v5.4h-10.3v7.6h8.7V1045.7z"/>
			<path class="st0" d="M329.3,1067.8l-2.9-1.8l0.7-1.6c0.8-1.7,1.2-3.5,1.3-5.3v-5h4.7l0,4.5c0,1.6-0.4,3.2-1,4.9
				C331.4,1065.2,330.5,1066.7,329.3,1067.8z"/>
			<path class="st0" d="M365.4,1048.9c-0.1,3.7-1,6.5-2.7,8.4c-1.6,1.9-4,2.8-6.9,2.8c-3.1,0-5.5-1.2-7.2-3.6
				c-1.7-2.4-2.5-5.8-2.5-10.3v-5.4c0-4.4,0.9-7.9,2.6-10.3c1.7-2.4,4.1-3.6,7.2-3.6c3,0,5.3,1,6.9,2.9c1.6,2,2.5,4.8,2.7,8.5h-5.6
				c-0.1-2.3-0.4-3.8-0.9-4.7c-0.6-0.9-1.6-1.3-3-1.3c-1.5,0-2.6,0.6-3.2,1.8c-0.6,1.2-1,3.2-1,6v6.1c0,3.2,0.3,5.4,0.9,6.6
				c0.6,1.2,1.7,1.8,3.2,1.8c1.5,0,2.5-0.4,3.1-1.3c0.6-0.8,0.9-2.3,1-4.5H365.4z"/>
			<path class="st0" d="M388.4,1046.4c0,4.3-0.9,7.7-2.6,10.1c-1.8,2.4-4.2,3.6-7.3,3.6c-3.1,0-5.6-1.2-7.3-3.6s-2.7-5.7-2.7-10
				v-5.5c0-4.4,0.9-7.9,2.6-10.4s4.2-3.7,7.4-3.7c3.1,0,5.5,1.2,7.3,3.7c1.8,2.4,2.7,5.9,2.7,10.3V1046.4z M382.8,1041
				c0-2.9-0.4-5.1-1.1-6.5c-0.7-1.4-1.8-2.1-3.3-2.1c-1.5,0-2.6,0.7-3.3,2.1c-0.7,1.4-1.1,3.4-1.1,6.2v5.7c0,2.8,0.4,4.9,1.1,6.2
				c0.7,1.3,1.8,2,3.4,2c1.5,0,2.5-0.7,3.3-2c0.7-1.3,1.1-3.3,1.1-6.1V1041z"/>
			<path class="st0" d="M399.8,1027.4l5.2,23.3l5.2-23.3h7.3v32.3h-5.6v-8.7l0.5-13.5l-5.5,22.2h-3.8l-5.5-22.2l0.5,13.5v8.7h-5.6
				v-32.3H399.8z"/>
			<path class="st0" d="M427.6,1048.3v11.3H422v-32.3h9.5c2.7,0,4.9,1,6.6,3c1.6,2,2.4,4.6,2.4,7.7c0,3.2-0.8,5.7-2.4,7.5
				s-3.9,2.7-6.7,2.7H427.6z M427.6,1042.9h3.9c1.1,0,1.9-0.4,2.5-1.2c0.6-0.8,0.9-2,0.9-3.5c0-1.6-0.3-2.9-0.9-3.8
				c-0.6-1-1.4-1.4-2.4-1.5h-3.9V1042.9z"/>
			<path class="st0" d="M462.3,1027.4v22.3c0,3.4-0.8,5.9-2.4,7.7c-1.6,1.8-3.8,2.7-6.7,2.7c-3,0-5.2-0.9-6.8-2.7
				c-1.6-1.8-2.4-4.4-2.4-7.8v-22.2h5.6v22.2c0,1.8,0.3,3.1,0.8,3.9s1.4,1.2,2.8,1.2s2.2-0.4,2.7-1.2c0.5-0.8,0.8-2,0.8-3.8v-22.3
				H462.3z"/>
		</g>
		<g class="st1">
			<path class="st0" d="M484.5,1032.8h-6.9v26.8h-5.6v-26.8h-6.7v-5.4h19.2V1032.8z"/>
		</g>
		<g class="st1">
			<path class="st0" d="M498.7,1053.1h-7.6l-1.5,6.6h-5.9l8.7-32.3h5.1l8.7,32.3h-6L498.7,1053.1z M492.3,1047.6h5.2l-2.6-11.5
				L492.3,1047.6z"/>
		</g>
		<g class="st1">
			<path class="st0" d="M527.2,1048.9c-0.1,3.7-1,6.5-2.7,8.4c-1.6,1.9-4,2.8-6.9,2.8c-3.1,0-5.5-1.2-7.2-3.6
				c-1.7-2.4-2.5-5.8-2.5-10.3v-5.4c0-4.4,0.9-7.9,2.6-10.3c1.7-2.4,4.1-3.6,7.2-3.6c3,0,5.3,1,6.9,2.9c1.6,2,2.5,4.8,2.7,8.5h-5.6
				c-0.1-2.3-0.4-3.8-0.9-4.7c-0.6-0.9-1.6-1.3-3-1.3c-1.5,0-2.6,0.6-3.2,1.8c-0.6,1.2-1,3.2-1,6v6.1c0,3.2,0.3,5.4,0.9,6.6
				c0.6,1.2,1.7,1.8,3.2,1.8c1.5,0,2.5-0.4,3.1-1.3c0.6-0.8,0.9-2.3,1-4.5H527.2z M519.6,1059.5l-0.2,1.3c0.7,0.2,1.3,0.6,1.7,1.3
				c0.4,0.7,0.6,1.5,0.6,2.6c0,1.6-0.5,2.9-1.5,3.9c-1,0.9-2.4,1.4-4.3,1.4l-0.1-3.7c0.9,0,1.4-0.6,1.4-1.8c0-0.6-0.2-1-0.5-1.2
				c-0.3-0.2-0.9-0.4-1.6-0.5l0.5-3.2H519.6z"/>
		</g>
		<g class="st1">
			<path class="st0" d="M543.9,1053.1h-7.6l-1.5,6.6h-5.9l8.7-32.3h5.1l8.7,32.3h-6L543.9,1053.1z M546.3,1019.1
				c0,1.6-0.4,3-1.1,4.2c-0.7,1.1-1.6,1.7-2.7,1.7c-0.4,0-0.8-0.1-1.1-0.2c-0.3-0.1-0.8-0.4-1.3-0.8c-0.6-0.4-1-0.7-1.2-0.8
				c-0.2-0.1-0.5-0.1-0.8-0.1c-0.3,0-0.6,0.2-0.9,0.5c-0.2,0.4-0.3,0.9-0.3,1.6l-3-0.2c0-1.6,0.4-3,1.1-4.2s1.6-1.7,2.7-1.7
				c0.3,0,0.6,0,0.8,0.1c0.3,0.1,0.7,0.4,1.4,0.8c0.6,0.4,1.1,0.7,1.4,0.8c0.3,0.1,0.6,0.2,0.8,0.2c0.3,0,0.6-0.2,0.9-0.5
				c0.2-0.4,0.4-0.9,0.4-1.6L546.3,1019.1z M537.5,1047.6h5.2l-2.6-11.5L537.5,1047.6z"/>
		</g>
		<g class="st1">
			<path class="st0" d="M573.1,1046.4c0,4.3-0.9,7.7-2.6,10.1c-1.8,2.4-4.2,3.6-7.3,3.6c-3.1,0-5.6-1.2-7.3-3.6s-2.7-5.7-2.7-10
				v-5.5c0-4.4,0.9-7.9,2.7-10.4c1.8-2.5,4.2-3.7,7.4-3.7c3.1,0,5.5,1.2,7.3,3.7c1.8,2.4,2.7,5.9,2.7,10.3V1046.4z M567.5,1041
				c0-2.9-0.4-5.1-1.1-6.5c-0.7-1.4-1.8-2.1-3.3-2.1c-1.5,0-2.6,0.7-3.3,2.1c-0.7,1.4-1.1,3.4-1.1,6.2v5.7c0,2.8,0.4,4.9,1.1,6.2
				c0.7,1.3,1.8,2,3.4,2c1.5,0,2.5-0.7,3.3-2c0.7-1.3,1.1-3.3,1.1-6.1V1041z"/>
			<path class="st0" d="M600.5,1045.7h-8.7v8.6h10.3v5.4h-15.9v-32.3H602v5.4h-10.3v7.6h8.7V1045.7z"/>
			<path class="st0" d="M633.7,1059.7h-5.6l-8.2-21.2v21.2h-5.6v-32.3h5.6l8.2,21.2v-21.2h5.6V1059.7z"/>
		</g>
		<g class="st1">
			<path class="st0" d="M657.8,1046.4c0,4.3-0.9,7.7-2.6,10.1c-1.8,2.4-4.2,3.6-7.3,3.6c-3.1,0-5.6-1.2-7.3-3.6s-2.7-5.7-2.7-10
				v-5.5c0-4.4,0.9-7.9,2.7-10.4c1.8-2.5,4.2-3.7,7.4-3.7c3.1,0,5.5,1.2,7.3,3.7c1.8,2.4,2.7,5.9,2.7,10.3V1046.4z M652.1,1041
				c0-2.9-0.4-5.1-1.1-6.5c-0.7-1.4-1.8-2.1-3.3-2.1c-1.5,0-2.6,0.7-3.3,2.1c-0.7,1.4-1.1,3.4-1.1,6.2v5.7c0,2.8,0.4,4.9,1.1,6.2
				c0.7,1.3,1.8,2,3.4,2c1.5,0,2.5-0.7,3.3-2c0.7-1.3,1.1-3.3,1.1-6.1V1041z"/>
		</g>
		<g class="st1">
			<path class="st0" d="M670.4,1050.8l4.7-23.4h6.3l-8,32.3h-5.8l-8-32.3h6.2L670.4,1050.8z"/>
		</g>
		<g class="st1">
			<path class="st0" d="M695.7,1053.1h-7.6l-1.5,6.6h-5.9l8.7-32.3h5.1l8.7,32.3h-6L695.7,1053.1z M689.3,1047.6h5.2l-2.6-11.5
				L689.3,1047.6z"/>
			<path class="st0" d="M717.5,1051.2c0-1.3-0.3-2.3-0.9-3c-0.6-0.7-1.6-1.4-3.2-2.1c-2.8-1.2-4.8-2.7-6-4.3
				c-1.2-1.6-1.8-3.6-1.8-5.8c0-2.7,0.8-4.9,2.5-6.6c1.7-1.6,3.8-2.5,6.3-2.5c1.7,0,3.2,0.4,4.6,1.3c1.3,0.8,2.4,2,3.1,3.5
				c0.7,1.5,1.1,3.3,1.1,5.2h-5.6c0-1.5-0.3-2.7-0.8-3.4c-0.6-0.8-1.4-1.2-2.4-1.2c-1,0-1.7,0.3-2.3,1c-0.5,0.7-0.8,1.6-0.8,2.7
				c0,0.9,0.3,1.7,0.9,2.4c0.6,0.7,1.7,1.5,3.2,2.2c2.7,1.1,4.7,2.5,5.9,4.2s1.8,3.8,1.8,6.3c0,2.8-0.8,5-2.3,6.6
				c-1.5,1.6-3.6,2.4-6.3,2.4c-1.8,0-3.4-0.4-4.9-1.3c-1.5-0.9-2.6-2.1-3.5-3.7c-0.8-1.6-1.2-3.5-1.2-5.7h5.6c0,1.9,0.3,3.2,0.9,4.1
				c0.6,0.8,1.6,1.3,3.1,1.3C716.6,1054.8,717.5,1053.6,717.5,1051.2z"/>
			<path class="st0" d="M741.8,1059.7h-5.6v-32.3h5.6V1059.7z"/>
		</g>
		<g class="st1">
			<path class="st0" d="M765.9,1059.7h-5.6l-8.2-21.2v21.2h-5.6v-32.3h5.6l8.2,21.2v-21.2h5.6V1059.7z"/>
		</g>
		<g class="st1">
			<path class="st0" d="M787.8,1032.8h-6.9v26.8h-5.6v-26.8h-6.8v-5.4h19.2V1032.8z"/>
			<path class="st0" d="M805.4,1045.7h-8.7v8.6H807v5.4H791v-32.3h15.9v5.4h-10.3v7.6h8.7V1045.7z"/>
			<path class="st0" d="M818.6,1047.9h-2.8v11.8h-5.6v-32.3h8.9c2.8,0,5,0.8,6.5,2.5s2.3,4.1,2.3,7.2c0,4.3-1.3,7.3-4,9l4.9,13.2
				v0.3h-6L818.6,1047.9z M815.8,1042.4h3.2c1.1,0,2-0.4,2.5-1.3s0.8-2,0.8-3.5c0-3.2-1.1-4.9-3.3-4.9h-3.3V1042.4z"/>
		</g>
		<g class="st1">
			<path class="st0" d="M846.1,1046.5h-8.7v13.2h-5.6v-32.3h15.4v5.4h-9.8v8.3h8.7V1046.5z"/>
		</g>
		<g class="st1">
			<path class="st0" d="M860,1053.1h-7.6l-1.5,6.6h-5.9l8.7-32.3h5.1l8.7,32.3h-6L860,1053.1z M853.5,1047.6h5.2l-2.6-11.5
				L853.5,1047.6z"/>
		</g>
		<g class="st1">
			<path class="st0" d="M888.4,1048.9c-0.1,3.7-1,6.5-2.7,8.4c-1.6,1.9-4,2.8-6.9,2.8c-3.1,0-5.5-1.2-7.2-3.6
				c-1.7-2.4-2.5-5.8-2.5-10.3v-5.4c0-4.4,0.9-7.9,2.6-10.3c1.7-2.4,4.1-3.6,7.2-3.6c3,0,5.3,1,6.9,2.9c1.6,2,2.5,4.8,2.7,8.5h-5.6
				c-0.1-2.3-0.4-3.8-0.9-4.7c-0.6-0.9-1.6-1.3-3-1.3c-1.5,0-2.6,0.6-3.2,1.8c-0.6,1.2-1,3.2-1,6v6.1c0,3.2,0.3,5.4,0.9,6.6
				c0.6,1.2,1.7,1.8,3.2,1.8c1.5,0,2.5-0.4,3.1-1.3c0.6-0.8,0.9-2.3,1-4.5H888.4z"/>
			<path class="st0" d="M906.2,1045.7h-8.7v8.6h10.3v5.4h-15.9v-32.3h15.9v5.4h-10.3v7.6h8.7V1045.7z"/>
			<path class="st0" d="M922.8,1051.2c0-1.3-0.3-2.3-0.9-3c-0.6-0.7-1.6-1.4-3.2-2.1c-2.8-1.2-4.8-2.7-6-4.3
				c-1.2-1.6-1.8-3.6-1.8-5.8c0-2.7,0.8-4.9,2.5-6.6s3.8-2.5,6.3-2.5c1.7,0,3.2,0.4,4.6,1.3c1.3,0.8,2.4,2,3.1,3.5
				c0.7,1.5,1.1,3.3,1.1,5.2h-5.6c0-1.5-0.3-2.7-0.8-3.4c-0.6-0.8-1.4-1.2-2.4-1.2c-1,0-1.7,0.3-2.3,1c-0.5,0.7-0.8,1.6-0.8,2.7
				c0,0.9,0.3,1.7,0.9,2.4s1.7,1.5,3.2,2.2c2.7,1.1,4.7,2.5,5.9,4.2s1.8,3.8,1.8,6.3c0,2.8-0.8,5-2.3,6.6c-1.5,1.6-3.6,2.4-6.3,2.4
				c-1.8,0-3.4-0.4-4.9-1.3c-1.5-0.9-2.6-2.1-3.5-3.7c-0.8-1.6-1.2-3.5-1.2-5.7h5.6c0,1.9,0.3,3.2,0.9,4.1c0.6,0.8,1.6,1.3,3,1.3
				C921.8,1054.8,922.8,1053.6,922.8,1051.2z"/>
		</g>
		<g>
			<g>
				<rect x="300.3" y="76" width="7" height="364"/>
			</g>
			<g>
				<rect x="325.3" y="76" width="7" height="364"/>
			</g>
			<g>
				<rect x="350.3" y="76" width="8" height="364"/>
			</g>
			<g>
				<rect x="376.3" y="76" width="7" height="364"/>
			</g>
			<g>
				<rect x="402.3" y="76" width="7" height="364"/>
			</g>
			<g>
				<rect x="427.3" y="76" width="8" height="364"/>
			</g>
			<g>
				<rect x="453.3" y="76" width="7" height="364"/>
			</g>
			<g>
				<rect x="479.3" y="76" width="7" height="364"/>
			</g>
			<g>
				<rect x="504.3" y="76" width="7" height="364"/>
			</g>
			<g>
				<rect x="529.3" y="76" width="8" height="364"/>
			</g>
			<g>
				<rect x="555.3" y="76" width="7" height="364"/>
			</g>
			<g>
				<rect x="580.3" y="76" width="7" height="364"/>
			</g>
			<g>
				<rect x="606.3" y="76" width="7" height="364"/>
			</g>
			<g>
				<rect x="631.3" y="76" width="7" height="364"/>
			</g>
			<g>
				<rect x="657.3" y="76" width="7" height="364"/>
			</g>
			<g>
				<rect x="173.9" y="127.7" transform="matrix(0.7071 -0.7071 0.7071 0.7071 11.3696 290.2338)" width="364.4" height="7.3"/>
			</g>
			<g>
				<rect x="191.9" y="145.8" transform="matrix(0.7071 -0.7071 0.7071 0.7071 3.9008 308.2684)" width="364.3" height="7.3"/>
			</g>
			<g>
				<rect x="209.9" y="163.8" transform="matrix(0.7071 -0.7071 0.7071 0.7071 -3.5709 326.3043)" width="364.4" height="7.3"/>
			</g>
			<g>
				<rect x="228" y="181.9" transform="matrix(0.7071 -0.7071 0.7071 0.7071 -11.0397 344.3389)" width="364.3" height="7.3"/>
			</g>
			<g>
				<rect x="246" y="199.9" transform="matrix(0.7071 -0.7071 0.7071 0.7071 -18.5114 362.3748)" width="364.4" height="7.3"/>
			</g>
			<g>
				<rect x="264" y="217.9" transform="matrix(0.7071 -0.7071 0.7071 0.7071 -25.9802 380.4035)" width="364.4" height="7.3"/>
			</g>
			<g>
				<rect x="282.1" y="236" transform="matrix(0.7071 -0.7071 0.7071 0.7071 -33.4489 398.4382)" width="364.4" height="7.3"/>
			</g>
			<g>
				<rect x="300.1" y="254" transform="matrix(0.7071 -0.7071 0.7071 0.7071 -40.9207 416.474)" width="364.4" height="7.3"/>
			</g>
			<g>
				<rect x="318.1" y="272" transform="matrix(0.7071 -0.7071 0.7071 0.7071 -48.3894 434.5087)" width="364.3" height="7.3"/>
			</g>
			<g>
				<rect x="336.2" y="290.1" transform="matrix(0.7071 -0.7071 0.7071 0.7071 -55.8611 452.5445)" width="364.4" height="7.3"/>
			</g>
			<g>
				<rect x="354.2" y="308.1" transform="matrix(0.7071 -0.7071 0.7071 0.7071 -63.3299 470.5792)" width="364.4" height="7.3"/>
			</g>
			<g>
				<rect x="372.2" y="326.1" transform="matrix(0.7071 -0.7071 0.7071 0.7071 -70.8016 488.615)" width="364.4" height="7.3"/>
			</g>
			<g>
				<rect x="390.3" y="344.2" transform="matrix(0.7071 -0.7071 0.7071 0.7071 -78.2704 506.6438)" width="364.3" height="7.3"/>
			</g>
			<g>
				<rect x="408.3" y="362.2" transform="matrix(0.7071 -0.7071 0.7071 0.7071 -85.7392 524.6784)" width="364.4" height="7.3"/>
			</g>
			<g>
				<rect x="426.3" y="380.2" transform="matrix(0.7071 -0.7071 0.7071 0.7071 -93.2109 542.7143)" width="364.4" height="7.3"/>
			</g>
		</g>
	</g>
</g>
</svg>
